<svg id="svg" version="1.1" xmlns="http://www.w3.org/2000/svg" xmlns:xlink="http://www.w3.org/1999/xlink" width="400" height="416.6666666666667" viewBox="0, 0, 400,416.6666666666667"><g id="svgg"><path id="path0" d="M295.067 0.667 C 294.696 1.037,294.729 70.709,295.100 70.938 C 295.265 71.040,295.400 55.211,295.400 35.762 C 295.400 16.313,295.385 0.400,295.367 0.400 C 295.348 0.400,295.213 0.520,295.067 0.667 M370.200 35.800 C 370.200 55.228,370.335 71.040,370.500 70.938 C 370.665 70.836,370.800 55.024,370.800 35.800 C 370.800 16.576,370.665 0.764,370.500 0.662 C 370.335 0.560,370.200 16.372,370.200 35.800 M337.029 37.429 C 336.487 37.970,336.400 39.622,336.400 49.400 C 336.400 59.178,336.487 60.830,337.029 61.371 C 337.973 62.316,359.627 62.316,360.571 61.371 C 361.517 60.426,361.517 38.374,360.571 37.429 C 359.627 36.484,337.973 36.484,337.029 37.429 M227.639 60.153 C 227.289 60.575,227.305 60.755,227.708 60.909 C 228.022 61.030,228.259 60.806,228.293 60.356 C 228.361 59.455,228.248 59.419,227.639 60.153 M63.000 61.175 C 61.722 61.703,60.686 63.099,60.684 64.295 C 60.684 64.903,60.713 82.841,60.749 104.159 C 60.786 125.476,60.722 143.011,60.608 143.125 C 59.893 143.840,61.608 147.089,62.432 146.580 C 62.634 146.455,62.800 146.563,62.800 146.819 C 62.800 147.076,63.070 147.182,63.400 147.055 C 63.730 146.929,64.000 146.999,64.000 147.213 C 64.000 147.450,67.177 147.600,72.200 147.600 L 80.400 147.600 80.400 182.800 L 80.400 218.000 42.376 218.000 C 14.676 218.000,4.427 218.120,4.626 218.443 C 4.813 218.744,4.614 218.795,4.006 218.602 C 3.454 218.427,2.518 218.586,1.559 219.018 L 0.006 219.719 0.002 318.061 L -0.003 416.403 99.244 416.398 C 198.186 416.394,198.491 416.391,198.283 415.596 C 198.168 415.158,198.238 414.900,198.437 415.023 C 198.652 415.156,198.800 406.937,198.800 394.824 L 198.800 374.400 236.800 374.400 L 274.800 374.400 274.800 391.200 C 274.800 403.733,274.919 408.000,275.267 408.000 C 275.523 408.000,275.616 408.117,275.473 408.260 C 275.330 408.404,275.525 408.777,275.906 409.090 C 276.341 409.447,276.376 409.552,276.000 409.371 C 275.592 409.175,275.528 409.215,275.800 409.496 C 276.458 410.177,278.000 410.515,278.000 409.978 C 278.000 409.621,278.137 409.615,278.546 409.955 C 279.287 410.570,381.200 410.583,381.200 409.968 C 381.200 409.739,381.360 409.651,381.555 409.772 C 381.750 409.893,382.132 409.723,382.404 409.396 C 382.676 409.068,382.764 408.800,382.600 408.800 C 382.436 408.800,382.513 408.546,382.770 408.236 C 383.028 407.925,383.095 407.582,382.919 407.474 C 382.744 407.365,382.690 384.006,382.800 355.564 C 382.933 321.060,382.865 303.581,382.595 303.039 C 382.155 302.156,379.539 301.181,379.326 301.821 C 379.249 302.054,372.107 302.159,360.730 302.092 L 342.260 301.984 341.104 303.092 L 339.948 304.200 309.274 304.305 C 281.103 304.402,278.559 304.465,278.100 305.082 C 277.710 305.606,277.600 312.944,277.600 338.587 C 277.600 373.583,277.659 372.419,275.823 373.694 C 274.794 374.408,198.432 374.040,197.326 373.315 C 196.751 372.938,195.992 372.540,195.640 372.431 C 195.288 372.322,170.010 372.135,139.468 372.016 C 85.089 371.804,83.924 371.784,83.368 371.024 C 82.882 370.360,82.800 359.617,82.800 296.943 C 82.800 222.935,82.746 219.972,81.382 219.448 C 80.900 219.264,80.815 213.865,80.804 183.098 L 80.792 146.965 82.218 145.582 L 83.644 144.200 112.893 144.090 C 132.868 144.015,142.306 143.844,142.657 143.553 C 143.053 143.224,143.197 139.930,143.285 129.127 C 143.400 115.158,143.402 115.127,144.300 114.400 C 144.795 114.000,145.200 113.476,145.200 113.236 C 145.200 112.996,145.425 112.845,145.700 112.900 C 146.095 112.979,146.219 108.004,146.291 89.277 C 146.341 76.229,146.481 65.392,146.603 65.195 C 147.000 64.553,146.355 62.897,145.334 61.938 L 144.336 61.000 104.068 60.922 C 81.921 60.880,63.440 60.993,63.000 61.175 M227.067 61.467 C 226.629 61.904,226.749 100.721,227.189 100.993 C 227.440 101.148,227.547 94.196,227.489 81.455 C 227.436 69.738,227.547 61.767,227.762 61.900 C 227.961 62.023,227.995 61.916,227.838 61.662 C 227.507 61.126,227.427 61.106,227.067 61.467 M295.600 72.383 C 295.600 72.597,295.960 72.965,296.400 73.200 C 296.840 73.435,297.200 73.485,297.200 73.310 C 297.200 73.135,296.840 72.768,296.400 72.493 C 295.957 72.216,295.600 72.167,295.600 72.383 M369.029 72.629 C 368.605 72.938,368.348 73.282,368.458 73.392 C 368.568 73.502,369.005 73.338,369.429 73.029 C 369.852 72.719,370.109 72.375,369.999 72.265 C 369.889 72.155,369.452 72.319,369.029 72.629 M107.520 93.680 C 108.209 94.369,108.209 124.031,107.520 124.720 C 107.163 125.077,103.056 125.200,91.510 125.200 L 75.980 125.200 75.590 124.174 C 74.877 122.299,75.087 95.139,75.823 94.089 L 76.445 93.200 91.743 93.200 C 103.107 93.200,107.163 93.323,107.520 93.680 M270.142 100.638 C 270.111 101.167,270.207 101.600,270.357 101.600 C 270.721 101.600,270.824 100.062,270.475 99.846 C 270.324 99.753,270.174 100.109,270.142 100.638 M243.400 112.797 C 296.640 112.909,340.369 112.867,340.575 112.705 C 340.782 112.542,297.222 112.451,243.775 112.502 L 146.600 112.594 243.400 112.797 M341.322 113.565 C 341.493 114.685,341.820 114.930,341.891 113.991 C 341.923 113.564,341.780 113.111,341.573 112.984 C 341.367 112.856,341.253 113.118,341.322 113.565 M342.300 174.900 C 342.355 207.735,342.446 249.720,342.502 268.200 C 342.559 286.680,342.649 259.815,342.702 208.500 C 342.756 157.185,342.665 115.200,342.500 115.200 C 342.335 115.200,342.245 142.065,342.300 174.900 M274.414 143.974 C 274.153 144.462,274.000 149.567,274.000 157.800 C 274.000 166.033,274.153 171.138,274.414 171.626 C 274.924 172.579,301.782 172.858,302.720 171.920 C 303.408 171.232,303.408 144.368,302.720 143.680 C 301.782 142.742,274.924 143.021,274.414 143.974 M350.596 187.607 C 350.458 187.830,350.201 187.924,350.026 187.816 C 349.850 187.708,349.368 187.994,348.953 188.451 C 348.233 189.248,348.200 190.357,348.200 214.142 L 348.200 239.000 349.200 240.000 L 350.200 241.000 374.729 241.109 C 391.185 241.182,399.176 241.085,399.008 240.814 C 398.862 240.577,399.016 240.508,399.379 240.647 C 400.202 240.963,400.341 188.501,399.520 187.680 C 398.891 187.051,350.984 186.979,350.596 187.607 M175.900 190.032 C 175.008 190.552,174.793 251.433,175.680 252.320 C 176.630 253.270,237.074 252.984,237.586 252.026 C 238.435 250.440,238.129 191.041,237.269 190.262 C 236.393 189.469,177.247 189.248,175.900 190.032 M51.120 241.680 C 52.064 242.624,51.782 280.275,50.826 280.786 C 50.325 281.054,43.508 281.200,31.449 281.200 L 12.845 281.200 12.223 280.311 C 11.283 278.970,11.283 243.430,12.223 242.089 L 12.845 241.200 31.743 241.200 C 45.907 241.200,50.760 241.320,51.120 241.680 M290.080 253.680 C 289.486 254.274,289.403 275.469,289.991 276.400 C 290.554 277.292,311.407 277.523,312.600 276.650 C 313.525 275.974,314.072 256.494,313.228 254.275 L 312.820 253.200 301.690 253.200 C 293.567 253.200,290.430 253.330,290.080 253.680 M102.000 280.392 C 101.480 280.721,101.400 283.454,101.400 301.000 C 101.400 318.546,101.480 321.279,102.000 321.608 C 103.146 322.333,141.836 322.107,142.571 321.371 C 143.525 320.418,143.525 281.582,142.571 280.629 C 141.836 279.893,103.146 279.667,102.000 280.392 M334.720 341.680 C 335.562 342.522,335.391 369.344,334.539 370.051 C 333.594 370.835,306.703 370.862,305.920 370.080 C 305.067 369.228,304.950 343.441,305.794 342.154 L 306.418 341.200 320.329 341.200 C 330.615 341.200,334.365 341.325,334.720 341.680 M61.824 366.568 C 62.812 367.290,63.050 389.110,62.080 390.080 C 61.678 390.482,58.988 390.600,50.200 390.600 C 41.412 390.600,38.722 390.482,38.320 390.080 C 37.350 389.110,37.588 367.290,38.576 366.568 C 39.202 366.110,41.463 366.000,50.200 366.000 C 58.937 366.000,61.198 366.110,61.824 366.568 M275.499 398.927 C 275.435 403.367,275.383 399.620,275.383 390.600 C 275.383 381.580,275.435 377.947,275.500 382.527 C 275.564 387.107,275.564 394.487,275.499 398.927 M300.720 385.680 C 301.526 386.486,301.385 399.843,300.567 400.157 C 299.322 400.635,286.586 400.426,286.080 399.920 C 285.745 399.585,285.600 397.431,285.600 392.800 C 285.600 384.526,284.909 385.200,293.400 385.200 C 298.187 385.200,300.384 385.344,300.720 385.680 M354.100 409.900 C 340.405 409.958,317.995 409.958,304.300 409.900 C 290.605 409.842,301.810 409.794,329.200 409.794 C 356.590 409.794,367.795 409.842,354.100 409.900 " stroke="none" fill="#6c9474" fill-rule="evenodd"></path><path id="path1" d="M295.211 35.934 L 295.205 71.867 296.202 72.401 C 296.751 72.695,297.200 73.077,297.200 73.251 C 297.200 73.424,312.873 73.577,332.029 73.591 C 355.555 73.608,366.776 73.484,366.606 73.209 C 366.437 72.936,366.689 72.930,367.377 73.191 C 367.940 73.405,368.400 73.435,368.400 73.258 C 368.400 73.080,368.849 72.695,369.398 72.401 L 370.395 71.867 370.389 35.934 L 370.383 0.000 332.800 0.000 L 295.217 0.000 295.211 35.934 M360.571 37.429 C 361.517 38.374,361.517 60.426,360.571 61.371 C 359.627 62.316,337.973 62.316,337.029 61.371 C 336.487 60.830,336.400 59.178,336.400 49.400 C 336.400 39.622,336.487 37.970,337.029 37.429 C 337.973 36.484,359.627 36.484,360.571 37.429 M230.551 59.521 C 230.660 59.698,230.221 59.806,229.575 59.761 C 228.527 59.688,228.212 59.977,228.348 60.886 C 228.371 61.043,228.078 61.054,227.695 60.911 C 227.065 60.675,227.056 60.721,227.600 61.402 C 227.930 61.815,228.020 62.046,227.800 61.915 C 227.071 61.480,227.270 101.262,228.000 102.037 C 228.330 102.387,228.723 102.609,228.872 102.530 C 229.022 102.451,229.258 102.570,229.396 102.793 C 229.879 103.575,267.595 103.328,268.469 102.538 C 268.983 102.072,269.200 102.027,269.200 102.387 C 269.200 102.786,269.326 102.794,269.776 102.420 C 270.093 102.157,270.243 101.655,270.108 101.305 C 269.937 100.860,270.017 100.763,270.372 100.983 C 270.778 101.233,270.783 101.116,270.400 100.400 C 270.062 99.768,270.054 99.586,270.374 99.784 C 270.951 100.140,270.941 61.810,270.364 60.733 C 270.151 60.334,269.731 60.128,269.394 60.258 C 269.067 60.383,268.800 60.265,268.800 59.996 C 268.800 59.704,268.478 59.591,268.000 59.716 C 267.560 59.831,267.200 59.762,267.200 59.563 C 267.200 59.351,259.523 59.200,248.776 59.200 C 238.643 59.200,230.442 59.345,230.551 59.521 M60.400 104.200 C 60.400 125.723,60.494 143.240,60.608 143.125 C 60.872 142.861,60.860 65.527,60.596 65.263 C 60.488 65.155,60.400 82.677,60.400 104.200 M146.492 65.400 C 146.436 65.620,146.348 76.420,146.295 89.400 C 146.220 108.026,146.095 112.979,145.700 112.900 C 145.425 112.845,145.200 112.996,145.200 113.236 C 145.200 113.476,144.795 114.000,144.300 114.400 C 143.402 115.127,143.400 115.158,143.285 129.127 C 143.197 139.930,143.053 143.224,142.657 143.553 C 142.306 143.844,132.868 144.015,112.893 144.090 L 83.644 144.200 82.218 145.582 L 80.792 146.965 80.804 183.098 C 80.815 213.865,80.900 219.264,81.382 219.448 C 82.746 219.972,82.800 222.935,82.800 296.943 C 82.800 359.617,82.882 370.360,83.368 371.024 C 83.924 371.784,85.089 371.804,139.468 372.016 C 170.010 372.135,195.288 372.322,195.640 372.431 C 195.992 372.540,196.751 372.938,197.326 373.315 C 198.432 374.040,274.794 374.408,275.823 373.694 C 277.659 372.419,277.600 373.583,277.600 338.587 C 277.600 312.944,277.710 305.606,278.100 305.082 C 278.559 304.465,281.103 304.402,309.274 304.305 L 339.948 304.200 341.104 303.092 L 342.260 301.984 360.730 302.092 C 370.889 302.151,379.200 302.065,379.200 301.900 C 379.200 301.735,370.920 301.600,360.800 301.600 L 342.400 301.600 342.354 208.500 C 342.329 157.295,342.340 115.085,342.379 114.700 C 342.418 114.315,342.248 114.000,342.002 114.000 C 341.755 114.000,341.681 114.208,341.838 114.462 C 342.016 114.750,341.948 114.815,341.655 114.634 C 341.398 114.475,341.268 114.214,341.367 114.053 C 342.143 112.798,341.547 112.790,243.877 112.798 L 146.806 112.805 146.700 88.902 C 146.641 75.756,146.548 65.180,146.492 65.400 M75.823 94.089 C 75.087 95.139,74.877 122.299,75.590 124.174 L 75.980 125.200 91.510 125.200 C 103.056 125.200,107.163 125.077,107.520 124.720 C 108.209 124.031,108.209 94.369,107.520 93.680 C 107.163 93.323,103.107 93.200,91.743 93.200 L 76.445 93.200 75.823 94.089 M302.720 143.680 C 303.408 144.368,303.408 171.232,302.720 171.920 C 301.782 172.858,274.924 172.579,274.414 171.626 C 274.153 171.138,274.000 166.033,274.000 157.800 C 274.000 149.567,274.153 144.462,274.414 143.974 C 274.924 143.021,301.782 142.742,302.720 143.680 M237.269 190.262 C 238.129 191.041,238.435 250.440,237.586 252.026 C 237.074 252.984,176.630 253.270,175.680 252.320 C 174.793 251.433,175.008 190.552,175.900 190.032 C 177.247 189.248,236.393 189.469,237.269 190.262 M12.223 242.089 C 11.283 243.430,11.283 278.970,12.223 280.311 L 12.845 281.200 31.449 281.200 C 43.508 281.200,50.325 281.054,50.826 280.786 C 51.782 280.275,52.064 242.624,51.120 241.680 C 50.760 241.320,45.907 241.200,31.743 241.200 L 12.845 241.200 12.223 242.089 M313.228 254.275 C 314.072 256.494,313.525 275.974,312.600 276.650 C 311.407 277.523,290.554 277.292,289.991 276.400 C 289.403 275.469,289.486 254.274,290.080 253.680 C 290.430 253.330,293.567 253.200,301.690 253.200 L 312.820 253.200 313.228 254.275 M142.571 280.629 C 143.525 281.582,143.525 320.418,142.571 321.371 C 141.836 322.107,103.146 322.333,102.000 321.608 C 101.480 321.279,101.400 318.546,101.400 301.000 C 101.400 283.454,101.480 280.721,102.000 280.392 C 103.146 279.667,141.836 279.893,142.571 280.629 M382.703 355.838 C 382.646 384.129,382.735 407.360,382.900 407.462 C 383.065 407.564,383.200 384.417,383.200 356.024 C 383.200 327.631,383.111 304.400,383.003 304.400 C 382.895 304.400,382.760 327.547,382.703 355.838 M305.794 342.154 C 304.950 343.441,305.067 369.228,305.920 370.080 C 306.703 370.862,333.594 370.835,334.539 370.051 C 335.391 369.344,335.562 342.522,334.720 341.680 C 334.365 341.325,330.615 341.200,320.329 341.200 L 306.418 341.200 305.794 342.154 M38.576 366.568 C 37.588 367.290,37.350 389.110,38.320 390.080 C 38.722 390.482,41.412 390.600,50.200 390.600 C 58.988 390.600,61.678 390.482,62.080 390.080 C 63.050 389.110,62.812 367.290,61.824 366.568 C 61.198 366.110,58.937 366.000,50.200 366.000 C 41.463 366.000,39.202 366.110,38.576 366.568 M275.383 390.600 C 275.383 399.620,275.435 403.367,275.499 398.927 C 275.564 394.487,275.564 387.107,275.500 382.527 C 275.435 377.947,275.383 381.580,275.383 390.600 M286.080 385.680 C 285.745 386.015,285.600 388.169,285.600 392.800 C 285.600 401.064,284.931 400.400,293.247 400.400 C 302.090 400.400,301.200 401.224,301.200 393.037 C 301.200 384.491,301.906 385.200,293.400 385.200 C 288.613 385.200,286.416 385.344,286.080 385.680 M304.300 409.900 C 317.995 409.958,340.405 409.958,354.100 409.900 C 367.795 409.842,356.590 409.794,329.200 409.794 C 301.810 409.794,290.605 409.842,304.300 409.900 " stroke="none" fill="#84b48c" fill-rule="evenodd"></path></g></svg>