<svg id="svg" version="1.1" xmlns="http://www.w3.org/2000/svg" xmlns:xlink="http://www.w3.org/1999/xlink" width="400" height="400" viewBox="0, 0, 400,400"><g id="svgg"><path id="path0" d="M195.800 88.407 C 189.496 90.408,187.093 98.002,190.600 104.842 L 192.400 108.353 192.400 113.589 C 192.400 121.011,191.385 122.781,187.113 122.808 C 186.391 122.813,184.540 123.280,183.000 123.846 C 181.460 124.412,178.932 125.112,177.382 125.402 C 175.832 125.693,173.929 126.305,173.152 126.763 C 172.376 127.221,170.944 127.838,169.970 128.134 C 168.997 128.431,167.500 129.152,166.644 129.737 C 165.788 130.321,164.826 130.800,164.504 130.800 C 163.678 130.800,156.282 135.227,153.758 137.233 C 151.082 139.360,150.201 139.041,145.154 134.119 C 140.882 129.954,138.057 125.743,137.122 122.149 C 136.809 120.947,133.065 118.102,131.097 117.572 C 127.582 116.626,124.968 117.493,121.467 120.766 C 116.647 125.274,118.528 134.473,124.643 136.306 C 127.940 137.294,130.629 139.194,135.076 143.683 C 140.107 148.759,140.510 149.561,139.054 151.610 C 138.007 153.083,135.880 156.276,133.653 159.718 C 132.911 160.863,132.079 162.433,131.803 163.207 C 131.527 163.982,130.919 165.242,130.452 166.007 C 129.985 166.773,129.602 167.670,129.601 168.000 C 129.600 168.330,129.068 169.724,128.418 171.098 C 127.768 172.472,127.035 174.705,126.789 176.060 C 126.543 177.415,126.003 179.441,125.588 180.562 C 125.173 181.683,124.640 183.860,124.404 185.400 C 123.636 190.403,122.420 191.143,114.904 191.177 L 110.007 191.200 106.161 189.200 C 97.951 184.931,89.800 189.007,89.800 197.382 C 89.800 205.699,98.109 209.882,106.123 205.600 L 109.867 203.600 114.946 203.600 C 122.348 203.600,123.527 204.275,124.371 209.000 C 124.607 210.320,125.140 212.300,125.557 213.400 C 125.973 214.500,126.521 216.748,126.775 218.397 C 127.044 220.138,127.648 222.095,128.219 223.068 C 128.758 223.989,129.200 225.010,129.200 225.338 C 129.200 225.666,129.807 227.077,130.548 228.474 C 131.289 229.872,132.021 231.584,132.174 232.280 C 132.326 232.976,132.723 233.770,133.055 234.046 C 133.387 234.321,134.029 235.279,134.483 236.173 C 135.478 238.138,137.414 240.998,138.766 242.504 C 141.800 245.883,132.615 255.951,123.933 258.765 C 121.060 259.696,119.026 263.070,118.863 267.178 L 118.727 270.624 120.263 272.470 C 125.046 278.215,130.018 279.032,135.079 274.907 C 136.164 274.023,137.005 272.878,137.457 271.669 C 139.023 267.487,140.776 264.978,145.128 260.689 C 150.396 255.498,150.858 255.377,154.608 258.202 C 155.924 259.194,157.810 260.396,158.800 260.874 C 159.790 261.352,161.140 262.140,161.800 262.625 C 162.460 263.110,163.450 263.644,164.000 263.811 C 164.550 263.978,166.140 264.719,167.533 265.457 C 168.926 266.196,170.324 266.800,170.639 266.800 C 170.954 266.800,172.154 267.322,173.306 267.959 C 174.588 268.668,176.331 269.227,177.800 269.398 C 179.120 269.553,181.219 270.092,182.465 270.597 C 183.710 271.102,185.690 271.647,186.865 271.807 C 191.875 272.493,192.396 273.356,192.399 280.964 L 192.400 286.528 190.400 290.238 C 183.402 303.220,200.297 313.364,207.615 300.574 C 209.624 297.062,209.483 294.767,206.976 290.200 L 205.000 286.600 205.000 281.200 C 205.000 273.475,205.596 272.441,210.400 271.828 C 211.610 271.674,213.410 271.183,214.400 270.739 C 215.390 270.294,217.682 269.685,219.494 269.385 C 221.397 269.071,223.509 268.426,224.494 267.859 C 225.432 267.320,226.746 266.765,227.413 266.627 C 228.080 266.488,229.430 265.841,230.413 265.189 C 231.396 264.537,232.490 264.003,232.844 264.002 C 233.198 264.001,234.157 263.546,234.975 262.991 C 235.793 262.436,237.306 261.555,238.337 261.032 C 239.368 260.509,241.314 259.253,242.661 258.241 C 246.526 255.335,246.934 255.448,252.363 260.928 C 256.901 265.508,258.552 267.838,259.998 271.703 C 261.303 275.190,263.978 276.959,268.219 277.139 C 278.961 277.595,282.821 262.227,272.886 258.559 C 269.044 257.140,265.829 254.899,261.929 250.920 C 256.818 245.706,256.679 245.061,259.797 240.976 C 260.594 239.933,261.620 238.345,262.078 237.448 C 262.535 236.550,263.408 235.183,264.017 234.408 C 264.626 233.634,265.251 232.370,265.406 231.600 C 265.561 230.830,266.102 229.648,266.609 228.972 C 267.116 228.297,267.742 226.947,268.002 225.972 C 268.261 224.998,268.824 223.628,269.252 222.928 C 269.680 222.229,270.297 220.127,270.624 218.257 C 270.950 216.387,271.486 214.214,271.814 213.428 C 272.143 212.642,272.685 210.698,273.019 209.108 C 274.089 204.021,274.824 203.606,282.764 203.602 L 287.728 203.600 291.518 205.643 C 297.630 208.938,302.457 207.830,306.270 202.256 C 312.087 193.755,300.819 183.370,291.816 188.935 C 288.656 190.889,287.378 191.196,282.400 191.196 C 275.925 191.196,273.868 190.291,273.384 187.230 C 273.260 186.443,272.640 184.090,272.008 182.000 C 271.376 179.910,270.677 177.093,270.456 175.740 C 270.235 174.387,269.618 172.407,269.084 171.340 C 268.551 170.273,267.987 168.871,267.831 168.224 C 267.675 167.578,267.177 166.530,266.726 165.895 C 266.274 165.261,265.659 163.928,265.360 162.932 C 265.060 161.937,264.272 160.504,263.607 159.747 C 262.943 158.991,262.400 158.163,262.400 157.908 C 262.400 157.420,261.109 155.400,258.908 152.442 C 256.740 149.529,256.944 148.946,261.900 143.915 C 266.213 139.535,269.587 137.200,273.321 136.009 C 279.456 134.053,280.491 125.608,275.238 120.356 C 270.179 115.296,262.580 116.642,259.976 123.059 C 258.150 127.557,256.834 129.413,252.285 133.900 C 246.427 139.678,246.667 139.701,236.421 132.366 C 235.443 131.665,234.003 130.916,233.221 130.702 C 232.440 130.487,231.080 129.901,230.200 129.400 C 229.320 128.899,227.880 128.264,227.000 127.990 C 226.120 127.715,224.587 127.084,223.593 126.586 C 222.599 126.088,220.709 125.549,219.393 125.388 C 218.077 125.227,216.117 124.751,215.038 124.329 C 213.959 123.908,211.833 123.301,210.312 122.981 C 205.299 121.927,205.000 121.399,205.000 113.600 C 205.000 107.872,205.379 106.527,208.068 102.714 C 212.345 96.651,203.248 86.042,195.800 88.407 M191.670 147.863 C 192.883 148.961,192.627 173.071,191.380 175.200 C 190.390 176.889,189.244 177.141,187.494 176.054 C 186.276 175.297,171.522 160.726,170.226 159.000 C 168.499 156.700,170.670 153.560,174.956 152.159 C 176.080 151.791,177.720 151.088,178.600 150.595 C 179.480 150.102,181.028 149.501,182.040 149.259 C 183.052 149.017,184.852 148.357,186.040 147.794 C 188.440 146.655,190.361 146.678,191.670 147.863 M212.000 147.998 C 212.770 148.383,214.480 149.007,215.800 149.385 C 217.120 149.762,218.766 150.418,219.457 150.842 C 220.149 151.266,221.533 151.859,222.534 152.160 C 223.534 152.461,225.173 153.380,226.176 154.202 C 229.865 157.225,228.666 159.024,214.243 172.100 C 206.345 179.261,205.092 178.098,204.873 163.400 C 204.644 148.072,206.055 145.024,212.000 147.998 M161.387 169.970 C 164.565 172.947,178.137 186.745,178.466 187.332 C 179.871 189.842,175.863 190.950,164.776 191.117 C 149.488 191.347,146.394 189.931,149.367 184.065 C 149.899 183.015,150.461 181.446,150.615 180.578 C 150.769 179.710,151.398 178.100,152.012 177.000 C 152.626 175.900,153.325 174.260,153.565 173.355 C 154.825 168.606,158.318 167.094,161.387 169.970 M240.987 169.024 C 242.138 170.265,246.218 178.262,246.609 180.041 C 246.763 180.743,247.409 182.416,248.044 183.758 C 250.937 189.873,248.327 191.191,233.315 191.197 C 216.299 191.203,215.915 189.936,228.909 176.652 C 238.298 167.053,238.842 166.710,240.987 169.024 M202.279 192.040 C 205.774 193.329,205.318 201.774,201.699 202.779 C 196.239 204.296,192.802 202.174,192.801 197.287 C 192.799 192.140,196.697 189.982,202.279 192.040 M176.179 203.992 C 179.009 205.068,178.398 207.456,174.085 212.163 C 162.988 224.277,160.280 226.800,158.375 226.800 C 157.073 226.800,154.146 223.447,153.347 221.039 C 152.984 219.948,152.361 218.502,151.962 217.825 C 151.563 217.149,150.984 215.516,150.675 214.198 C 150.366 212.879,149.728 211.083,149.257 210.206 C 148.143 208.134,148.117 205.483,149.200 204.400 C 150.099 203.501,173.939 203.140,176.179 203.992 M245.018 204.147 C 249.132 205.242,249.985 206.652,248.387 209.712 C 247.901 210.640,247.099 212.570,246.603 214.000 C 244.314 220.607,241.394 226.158,239.969 226.610 C 237.965 227.246,236.898 226.432,228.815 218.096 C 218.554 207.516,218.041 206.476,222.138 204.568 C 224.641 203.403,241.088 203.100,245.018 204.147 M190.315 217.700 C 193.253 221.261,193.273 245.386,190.339 247.246 C 189.358 247.868,187.029 247.606,184.955 246.640 C 183.830 246.116,182.340 245.562,181.643 245.409 C 180.947 245.256,178.515 244.185,176.239 243.029 C 166.931 238.299,166.809 238.989,179.125 226.702 C 188.344 217.505,189.432 216.630,190.315 217.700 M218.036 226.588 C 230.007 238.591,229.979 238.518,223.741 241.617 C 221.793 242.584,219.750 243.673,219.200 244.036 C 218.650 244.399,217.125 245.006,215.812 245.385 C 214.499 245.764,212.732 246.426,211.887 246.858 C 209.621 248.013,206.944 247.754,205.840 246.272 C 203.959 243.745,204.449 219.951,206.423 217.977 C 207.852 216.548,208.504 217.031,218.036 226.588 " stroke="none" fill="#fabb3b" fill-rule="evenodd"></path><path id="path1" d="M180.600 18.456 C 179.720 18.656,177.200 19.002,175.000 19.224 C 172.800 19.445,170.321 19.891,169.492 20.213 C 168.662 20.536,167.342 20.800,166.558 20.800 C 165.773 20.800,163.932 21.088,162.466 21.440 C 161.000 21.792,158.270 22.443,156.400 22.886 C 154.530 23.329,152.280 23.920,151.400 24.200 C 150.520 24.480,148.450 25.113,146.800 25.608 C 130.340 30.543,108.040 41.193,97.200 49.295 C 96.650 49.707,94.289 51.428,91.953 53.121 C 74.837 65.527,60.642 80.376,48.563 98.511 C 44.721 104.279,44.244 105.029,42.153 108.600 C 40.462 111.489,40.074 112.203,38.136 115.991 C 37.177 117.866,36.227 119.670,36.024 120.000 C 35.222 121.306,32.454 127.492,31.996 129.000 C 31.729 129.880,31.286 130.960,31.012 131.400 C 30.737 131.840,30.058 133.550,29.502 135.200 C 28.945 136.850,28.215 138.830,27.878 139.600 C 27.542 140.370,26.966 142.080,26.599 143.400 C 26.233 144.720,25.678 146.479,25.366 147.308 C 25.055 148.138,24.800 149.152,24.800 149.562 C 24.800 149.973,24.531 150.824,24.202 151.454 C 23.874 152.084,23.604 152.892,23.602 153.248 C 23.601 153.604,23.240 155.023,22.800 156.400 C 22.360 157.777,22.000 159.523,22.000 160.278 C 22.000 161.034,21.804 162.019,21.564 162.468 C 21.324 162.916,20.986 164.570,20.813 166.142 C 20.639 167.714,20.085 169.990,19.580 171.200 C 18.722 173.257,18.579 174.434,18.824 177.400 C 18.879 178.060,18.716 179.570,18.462 180.755 C 17.842 183.647,17.806 223.200,18.424 223.200 C 18.657 223.200,18.725 223.397,18.576 223.638 C 18.427 223.879,18.486 224.464,18.706 224.938 C 18.925 225.412,19.303 227.307,19.545 229.150 C 19.787 230.992,20.148 232.702,20.349 232.950 C 20.549 233.197,20.809 234.750,20.926 236.400 C 21.043 238.050,21.532 240.750,22.011 242.400 C 22.491 244.050,23.008 246.390,23.160 247.600 C 23.312 248.810,23.728 250.430,24.084 251.200 C 24.846 252.849,25.436 254.824,25.782 256.885 C 25.919 257.702,26.451 259.322,26.966 260.485 C 28.030 262.894,28.164 263.233,29.455 266.800 C 29.973 268.230,30.400 269.850,30.405 270.400 C 30.409 270.950,30.842 272.120,31.365 273.000 C 32.775 275.369,37.994 285.955,38.652 287.780 C 38.965 288.649,39.510 289.680,39.864 290.071 C 40.217 290.461,41.906 293.170,43.616 296.090 C 47.165 302.153,47.193 302.196,51.110 307.637 C 52.711 309.861,54.274 312.170,54.584 312.769 C 54.894 313.368,55.460 314.115,55.842 314.429 C 56.224 314.743,58.242 317.070,60.327 319.600 C 81.640 345.465,116.136 368.310,147.000 376.999 C 148.320 377.370,150.570 378.005,152.000 378.410 C 158.645 380.290,160.854 380.801,166.000 381.648 C 167.430 381.884,169.602 382.329,170.826 382.638 C 172.051 382.947,173.905 383.200,174.947 383.200 C 175.989 383.200,178.138 383.515,179.721 383.900 C 184.028 384.947,219.366 384.940,222.984 383.891 C 224.295 383.511,226.353 383.200,227.558 383.200 C 228.762 383.200,230.749 382.947,231.974 382.638 C 233.198 382.329,235.370 381.883,236.800 381.647 C 241.044 380.945,243.690 380.395,245.600 379.817 C 246.590 379.517,249.830 378.612,252.800 377.804 C 284.938 369.069,321.993 345.253,341.180 321.000 C 342.573 319.240,344.400 316.990,345.240 316.000 C 347.893 312.876,354.594 303.458,356.767 299.800 C 365.943 284.353,369.477 276.918,375.584 260.200 C 375.986 259.100,376.716 256.670,377.207 254.800 C 377.698 252.930,378.258 251.040,378.452 250.600 C 378.646 250.160,378.976 248.990,379.185 248.000 C 379.394 247.010,379.821 245.210,380.135 244.000 C 381.249 239.712,382.000 236.071,382.004 234.943 C 382.007 234.314,382.277 232.916,382.604 231.836 C 382.932 230.756,383.200 228.764,383.200 227.409 C 383.200 226.054,383.515 223.968,383.900 222.773 C 384.960 219.484,384.960 183.463,383.900 179.742 C 383.515 178.391,383.200 176.304,383.200 175.106 C 383.200 173.908,382.932 172.044,382.604 170.964 C 382.277 169.884,382.007 168.486,382.004 167.857 C 382.000 166.729,381.249 163.088,380.135 158.800 C 379.821 157.590,379.392 155.790,379.181 154.800 C 378.970 153.810,378.681 152.730,378.539 152.400 C 378.398 152.070,377.785 150.000,377.178 147.800 C 375.935 143.293,374.010 137.838,371.803 132.564 C 370.983 130.604,370.050 128.280,369.730 127.400 C 368.971 125.315,362.468 112.381,360.880 109.800 C 360.203 108.700,359.024 106.720,358.259 105.400 C 342.495 78.195,314.196 52.114,284.081 37.037 C 273.510 31.744,265.990 28.850,250.800 24.229 C 249.810 23.928,247.470 23.321,245.600 22.881 C 243.730 22.441,241.000 21.792,239.534 21.440 C 238.068 21.088,236.245 20.800,235.483 20.800 C 234.721 20.800,233.491 20.547,232.749 20.238 C 232.007 19.929,229.510 19.487,227.200 19.255 C 224.890 19.024,222.190 18.654,221.200 18.435 C 218.936 17.932,182.820 17.951,180.600 18.456 M202.398 88.999 C 207.687 91.734,210.690 98.998,208.068 102.714 C 205.379 106.527,205.000 107.872,205.000 113.600 C 205.000 121.399,205.299 121.927,210.312 122.981 C 211.833 123.301,213.959 123.908,215.038 124.329 C 216.117 124.751,218.077 125.227,219.393 125.388 C 220.709 125.549,222.599 126.088,223.593 126.586 C 224.587 127.084,226.120 127.715,227.000 127.990 C 227.880 128.264,229.320 128.899,230.200 129.400 C 231.080 129.901,232.440 130.487,233.221 130.702 C 234.003 130.916,235.443 131.665,236.421 132.366 C 246.667 139.701,246.427 139.678,252.285 133.900 C 256.834 129.413,258.150 127.557,259.976 123.059 C 264.416 112.120,281.556 118.659,278.384 130.081 C 277.754 132.349,275.117 135.436,273.321 136.009 C 269.587 137.200,266.213 139.535,261.900 143.915 C 256.944 148.946,256.740 149.529,258.908 152.442 C 261.109 155.400,262.400 157.420,262.400 157.908 C 262.400 158.163,262.943 158.991,263.607 159.747 C 264.272 160.504,265.060 161.937,265.360 162.932 C 265.659 163.928,266.274 165.261,266.726 165.895 C 267.177 166.530,267.675 167.578,267.831 168.224 C 267.987 168.871,268.551 170.273,269.084 171.340 C 269.618 172.407,270.235 174.387,270.456 175.740 C 270.677 177.093,271.376 179.910,272.008 182.000 C 272.640 184.090,273.260 186.443,273.384 187.230 C 274.134 191.977,285.235 193.004,291.816 188.935 C 300.819 183.370,312.087 193.755,306.270 202.256 C 302.457 207.830,297.630 208.938,291.518 205.643 L 287.728 203.600 282.764 203.602 C 274.824 203.606,274.089 204.021,273.019 209.108 C 272.685 210.698,272.143 212.642,271.814 213.428 C 271.486 214.214,270.950 216.387,270.624 218.257 C 270.297 220.127,269.680 222.229,269.252 222.928 C 268.824 223.628,268.261 224.998,268.002 225.972 C 267.742 226.947,267.116 228.297,266.609 228.972 C 266.102 229.648,265.561 230.830,265.406 231.600 C 265.251 232.370,264.626 233.634,264.017 234.408 C 263.408 235.183,262.535 236.550,262.078 237.448 C 261.620 238.345,260.594 239.933,259.797 240.976 C 256.679 245.061,256.818 245.706,261.929 250.920 C 265.829 254.899,269.044 257.140,272.886 258.559 C 282.821 262.227,278.961 277.595,268.219 277.139 C 263.978 276.959,261.303 275.190,259.998 271.703 C 258.552 267.838,256.901 265.508,252.363 260.928 C 246.934 255.448,246.526 255.335,242.661 258.241 C 241.314 259.253,239.368 260.509,238.337 261.032 C 237.306 261.555,235.793 262.436,234.975 262.991 C 234.157 263.546,233.198 264.001,232.844 264.002 C 232.490 264.003,231.396 264.537,230.413 265.189 C 229.430 265.841,228.080 266.488,227.413 266.627 C 226.746 266.765,225.432 267.320,224.494 267.859 C 223.509 268.426,221.397 269.071,219.494 269.385 C 217.682 269.685,215.390 270.294,214.400 270.739 C 213.410 271.183,211.610 271.674,210.400 271.828 C 205.596 272.441,205.000 273.475,205.000 281.200 L 205.000 286.600 206.976 290.200 C 212.505 300.273,202.682 310.816,193.468 304.698 C 188.155 301.170,187.124 296.314,190.400 290.238 L 192.400 286.528 192.399 280.964 C 192.396 273.356,191.875 272.493,186.865 271.807 C 185.690 271.647,183.710 271.102,182.465 270.597 C 181.219 270.092,179.120 269.553,177.800 269.398 C 176.331 269.227,174.588 268.668,173.306 267.959 C 172.154 267.322,170.954 266.800,170.639 266.800 C 170.324 266.800,168.926 266.196,167.533 265.457 C 166.140 264.719,164.550 263.978,164.000 263.811 C 163.450 263.644,162.460 263.110,161.800 262.625 C 161.140 262.140,159.790 261.352,158.800 260.874 C 157.810 260.396,155.924 259.194,154.608 258.202 C 150.858 255.377,150.396 255.498,145.128 260.689 C 140.776 264.978,139.023 267.487,137.457 271.669 C 135.507 276.877,127.663 279.181,123.538 275.758 C 122.582 274.964,121.109 273.485,120.263 272.470 L 118.727 270.624 118.863 267.178 C 119.026 263.070,121.060 259.696,123.933 258.765 C 127.980 257.454,130.609 255.651,135.138 251.086 C 140.270 245.913,140.768 244.734,138.766 242.504 C 137.414 240.998,135.478 238.138,134.483 236.173 C 134.029 235.279,133.387 234.321,133.055 234.046 C 132.723 233.770,132.326 232.976,132.174 232.280 C 132.021 231.584,131.289 229.872,130.548 228.474 C 129.807 227.077,129.200 225.666,129.200 225.338 C 129.200 225.010,128.758 223.989,128.219 223.068 C 127.648 222.095,127.044 220.138,126.775 218.397 C 126.521 216.748,125.973 214.500,125.557 213.400 C 125.140 212.300,124.607 210.320,124.371 209.000 C 123.527 204.275,122.348 203.600,114.946 203.600 L 109.867 203.600 106.123 205.600 C 98.109 209.882,89.800 205.699,89.800 197.382 C 89.800 189.007,97.951 184.931,106.161 189.200 L 110.007 191.200 114.904 191.177 C 122.420 191.143,123.636 190.403,124.404 185.400 C 124.640 183.860,125.173 181.683,125.588 180.562 C 126.003 179.441,126.543 177.415,126.789 176.060 C 127.035 174.705,127.768 172.472,128.418 171.098 C 129.068 169.724,129.600 168.330,129.601 168.000 C 129.602 167.670,129.985 166.773,130.452 166.007 C 130.919 165.242,131.527 163.982,131.803 163.207 C 132.079 162.433,132.911 160.863,133.653 159.718 C 135.880 156.276,138.007 153.083,139.054 151.610 C 140.510 149.561,140.107 148.759,135.076 143.683 C 130.629 139.194,127.940 137.294,124.643 136.306 C 118.528 134.473,116.647 125.274,121.467 120.766 C 124.968 117.493,127.582 116.626,131.097 117.572 C 133.065 118.102,136.809 120.947,137.122 122.149 C 138.057 125.743,140.882 129.954,145.154 134.119 C 150.201 139.041,151.082 139.360,153.758 137.233 C 156.282 135.227,163.678 130.800,164.504 130.800 C 164.826 130.800,165.788 130.321,166.644 129.737 C 167.500 129.152,168.997 128.431,169.970 128.134 C 170.944 127.838,172.376 127.221,173.152 126.763 C 173.929 126.305,175.832 125.693,177.382 125.402 C 178.932 125.112,181.460 124.412,183.000 123.846 C 184.540 123.280,186.391 122.813,187.113 122.808 C 191.385 122.781,192.400 121.011,192.400 113.589 L 192.400 108.353 190.600 104.842 C 185.629 95.145,193.596 84.447,202.398 88.999 M186.040 147.794 C 184.852 148.357,183.052 149.017,182.040 149.259 C 181.028 149.501,179.480 150.102,178.600 150.595 C 177.720 151.088,176.080 151.791,174.956 152.159 C 170.670 153.560,168.499 156.700,170.226 159.000 C 171.522 160.726,186.276 175.297,187.494 176.054 C 189.244 177.141,190.390 176.889,191.380 175.200 C 192.627 173.071,192.883 148.961,191.670 147.863 C 190.361 146.678,188.440 146.655,186.040 147.794 M207.039 147.679 C 203.676 150.616,203.966 174.938,207.380 176.248 C 209.818 177.183,228.000 160.452,228.000 157.274 C 228.000 155.362,225.547 153.067,222.534 152.160 C 221.533 151.859,220.149 151.266,219.457 150.842 C 218.766 150.418,217.120 149.762,215.800 149.385 C 214.480 149.007,212.770 148.383,212.000 147.998 C 209.468 146.731,208.216 146.651,207.039 147.679 M155.775 169.805 C 154.716 170.942,153.825 172.372,153.565 173.355 C 153.325 174.260,152.626 175.900,152.012 177.000 C 151.398 178.100,150.769 179.710,150.615 180.578 C 150.461 181.446,149.899 183.015,149.367 184.065 C 146.394 189.931,149.488 191.347,164.776 191.117 C 173.035 190.993,173.992 190.904,176.063 190.076 C 180.041 188.484,180.217 188.836,170.565 179.107 C 157.966 166.406,158.580 166.793,155.775 169.805 M228.909 176.652 C 215.915 189.936,216.299 191.203,233.315 191.197 C 248.327 191.191,250.937 189.873,248.044 183.758 C 247.409 182.416,246.763 180.743,246.609 180.041 C 246.455 179.339,245.340 176.803,244.132 174.406 C 239.642 165.496,239.852 165.465,228.909 176.652 M197.200 191.479 C 192.022 192.297,190.774 201.032,195.600 202.677 C 201.082 204.547,204.493 202.443,204.541 197.163 C 204.582 192.701,202.021 190.718,197.200 191.479 M149.200 204.400 C 148.117 205.483,148.143 208.134,149.257 210.206 C 149.728 211.083,150.366 212.879,150.675 214.198 C 150.984 215.516,151.563 217.149,151.962 217.825 C 152.361 218.502,152.984 219.948,153.347 221.039 C 154.146 223.447,157.073 226.800,158.375 226.800 C 160.280 226.800,162.988 224.277,174.085 212.163 C 178.398 207.456,179.009 205.068,176.179 203.992 C 173.939 203.140,150.099 203.501,149.200 204.400 M222.138 204.568 C 218.041 206.476,218.554 207.516,228.815 218.096 C 236.898 226.432,237.965 227.246,239.969 226.610 C 241.394 226.158,244.314 220.607,246.603 214.000 C 247.099 212.570,247.901 210.640,248.387 209.712 C 250.926 204.850,247.921 203.610,233.600 203.609 C 224.517 203.608,224.131 203.640,222.138 204.568 M179.125 226.702 C 166.809 238.989,166.931 238.299,176.239 243.029 C 178.515 244.185,180.947 245.256,181.643 245.409 C 182.340 245.562,183.830 246.116,184.955 246.640 C 187.029 247.606,189.358 247.868,190.339 247.246 C 193.273 245.386,193.253 221.261,190.315 217.700 C 189.432 216.630,188.344 217.505,179.125 226.702 M206.423 217.977 C 204.449 219.951,203.959 243.745,205.840 246.272 C 206.944 247.754,209.621 248.013,211.887 246.858 C 212.732 246.426,214.499 245.764,215.812 245.385 C 217.125 245.006,218.650 244.399,219.200 244.036 C 219.750 243.673,221.793 242.584,223.741 241.617 C 229.979 238.518,230.007 238.591,218.036 226.588 C 208.504 217.031,207.852 216.548,206.423 217.977 " stroke="none" fill="#014cad" fill-rule="evenodd"></path></g></svg>