<svg id="svg" version="1.1" xmlns="http://www.w3.org/2000/svg" xmlns:xlink="http://www.w3.org/1999/xlink" width="400" height="400" viewBox="0, 0, 400,400"><g id="svgg"><path id="path0" d="M120.339 62.086 C 119.835 62.794,92.531 90.250,59.663 123.100 L -0.097 182.828 0.068 188.959 C 0.203 193.961,0.354 195.211,0.890 195.747 C 1.252 196.109,1.662 196.764,1.801 197.202 C 1.940 197.641,2.222 198.000,2.427 198.000 C 2.632 198.000,2.800 198.286,2.800 198.635 C 2.800 199.378,7.068 203.600,7.820 203.600 C 8.103 203.600,8.393 203.735,8.467 203.900 C 8.677 204.373,12.002 206.000,12.758 206.000 C 13.133 206.000,13.639 206.199,13.881 206.441 C 14.165 206.725,15.086 206.786,16.461 206.613 C 17.638 206.464,22.200 206.221,26.600 206.071 L 34.600 205.800 106.366 133.933 C 145.837 94.406,178.291 61.781,178.486 61.433 C 178.807 60.858,176.184 60.800,150.047 60.800 L 121.254 60.800 120.339 62.086 M241.221 61.700 C 241.023 62.195,208.627 94.820,169.231 134.200 C 129.834 173.579,97.600 206.024,97.600 206.300 C 97.600 206.696,103.614 206.800,126.400 206.800 C 150.266 206.800,155.200 206.708,155.200 206.262 C 155.200 205.966,187.600 173.323,227.200 133.723 C 266.800 94.123,299.200 61.515,299.200 61.261 C 299.200 60.917,291.887 60.800,270.390 60.800 L 241.580 60.800 241.221 61.700 M12.938 61.700 C 12.836 61.865,12.439 62.000,12.056 62.000 C 11.181 62.000,9.207 62.899,9.203 63.300 C 9.201 63.465,8.948 63.600,8.641 63.600 C 7.864 63.600,2.000 69.403,2.000 70.173 C 2.000 70.518,1.820 70.800,1.600 70.800 C 1.380 70.800,1.200 71.145,1.200 71.567 C 1.200 71.988,0.975 72.408,0.700 72.500 C 0.309 72.630,0.175 77.816,0.088 96.233 L -0.025 119.800 28.871 90.916 C 44.763 75.031,57.684 61.953,57.583 61.854 C 57.261 61.540,13.131 61.388,12.938 61.700 M372.021 61.500 L 362.242 61.615 290.131 133.707 C 250.470 173.358,218.015 206.025,218.010 206.300 C 218.002 206.695,224.021 206.800,246.800 206.800 C 269.627 206.800,275.600 206.696,275.600 206.298 C 275.600 206.022,303.606 177.807,337.836 143.598 L 400.071 81.400 399.880 77.015 C 399.762 74.318,399.517 72.572,399.244 72.481 C 399.000 72.400,398.800 71.988,398.800 71.567 C 398.800 71.145,398.620 70.800,398.400 70.800 C 398.180 70.800,398.000 70.518,398.000 70.173 C 398.000 69.403,392.136 63.600,391.359 63.600 C 391.052 63.600,390.799 63.465,390.797 63.300 C 390.793 62.899,388.819 62.000,387.944 62.000 C 387.561 62.000,387.136 61.820,387.000 61.600 C 386.864 61.380,385.638 61.242,384.276 61.293 C 382.914 61.343,377.400 61.437,372.021 61.500 M369.282 175.281 L 338.764 205.800 360.282 206.056 C 372.117 206.197,382.672 206.441,383.737 206.599 C 384.990 206.785,385.830 206.730,386.117 206.443 C 386.361 206.199,386.867 206.000,387.242 206.000 C 387.998 206.000,391.323 204.373,391.533 203.900 C 391.607 203.735,391.897 203.600,392.180 203.600 C 392.932 203.600,397.200 199.378,397.200 198.635 C 397.200 198.286,397.368 198.000,397.573 198.000 C 397.778 198.000,398.060 197.641,398.199 197.202 C 398.338 196.764,398.756 196.102,399.126 195.731 C 399.783 195.074,400.323 163.129,399.917 148.881 L 399.800 144.763 369.282 175.281 " stroke="none" fill="#facb3c" fill-rule="evenodd"></path><path id="path1" d="M28.400 32.021 C 28.400 32.229,27.896 32.400,27.280 32.400 C 26.064 32.400,24.008 33.216,24.003 33.700 C 24.001 33.865,23.724 34.000,23.387 34.000 C 22.591 34.000,20.000 36.591,20.000 37.387 C 20.000 37.724,19.820 38.000,19.600 38.000 C 19.380 38.000,19.200 38.360,19.200 38.800 C 19.200 39.240,19.020 39.600,18.800 39.600 C 18.580 39.600,18.400 40.500,18.400 41.600 C 18.400 42.700,18.220 43.600,18.000 43.600 C 17.266 43.600,17.477 61.067,18.214 61.350 C 18.706 61.539,38.443 61.657,61.100 61.607 L 64.400 61.600 64.400 51.224 C 64.400 44.737,64.250 40.755,64.000 40.600 C 63.780 40.464,63.600 40.003,63.600 39.576 C 63.600 39.149,63.420 38.800,63.200 38.800 C 62.980 38.800,62.800 38.518,62.800 38.174 C 62.800 37.359,58.641 33.200,57.826 33.200 C 57.482 33.200,57.200 33.020,57.200 32.800 C 57.200 32.580,56.581 32.400,55.824 32.400 C 55.067 32.400,54.333 32.216,54.194 31.990 C 53.862 31.453,28.400 31.483,28.400 32.021 M345.800 32.000 C 345.664 32.220,344.933 32.400,344.176 32.400 C 343.419 32.400,342.800 32.580,342.800 32.800 C 342.800 33.020,342.518 33.200,342.174 33.200 C 341.359 33.200,337.200 37.359,337.200 38.174 C 337.200 38.518,337.020 38.800,336.800 38.800 C 336.580 38.800,336.400 39.149,336.400 39.576 C 336.400 40.003,336.220 40.464,336.000 40.600 C 335.750 40.755,335.600 44.737,335.600 51.224 L 335.600 61.600 348.700 61.613 C 373.389 61.638,381.201 61.574,381.800 61.345 C 382.525 61.066,382.721 43.600,382.000 43.600 C 381.780 43.600,381.600 42.700,381.600 41.600 C 381.600 40.500,381.420 39.600,381.200 39.600 C 380.980 39.600,380.800 39.240,380.800 38.800 C 380.800 38.360,380.620 38.000,380.400 38.000 C 380.180 38.000,380.000 37.724,380.000 37.387 C 380.000 36.591,377.409 34.000,376.613 34.000 C 376.276 34.000,375.999 33.865,375.997 33.700 C 375.992 33.216,373.936 32.400,372.720 32.400 C 372.104 32.400,371.600 32.220,371.600 32.000 C 371.600 31.742,367.075 31.600,358.824 31.600 C 350.737 31.600,345.956 31.747,345.800 32.000 M26.600 206.000 C 22.200 206.110,18.375 206.346,18.100 206.524 C 17.455 206.941,17.355 358.800,18.000 358.800 C 18.220 358.800,18.400 359.432,18.400 360.205 C 18.400 363.243,22.613 367.600,25.550 367.600 C 26.212 367.600,26.864 367.780,27.000 368.000 C 27.157 368.254,32.330 368.400,41.200 368.400 C 50.070 368.400,55.243 368.254,55.400 368.000 C 55.536 367.780,56.357 367.600,57.224 367.600 C 58.091 367.600,58.800 367.450,58.800 367.268 C 58.800 367.085,59.295 366.680,59.900 366.368 C 61.397 365.595,62.800 364.168,62.800 363.418 C 62.800 363.078,62.980 362.800,63.200 362.800 C 63.420 362.800,63.600 362.260,63.600 361.600 C 63.600 360.940,63.780 360.400,64.000 360.400 C 64.265 360.400,64.400 334.467,64.400 283.400 L 64.400 206.400 49.880 206.400 C 41.894 206.400,35.189 206.265,34.980 206.100 C 34.771 205.935,31.000 205.890,26.600 206.000 M336.900 206.289 L 335.600 206.451 335.600 283.425 C 335.600 334.475,335.735 360.400,336.000 360.400 C 336.220 360.400,336.400 360.940,336.400 361.600 C 336.400 362.260,336.580 362.800,336.800 362.800 C 337.020 362.800,337.200 363.078,337.200 363.418 C 337.200 364.168,338.603 365.595,340.100 366.368 C 340.705 366.680,341.200 367.085,341.200 367.268 C 341.200 367.450,341.920 367.600,342.800 367.600 C 343.680 367.600,344.400 367.780,344.400 368.000 C 344.400 368.259,349.392 368.400,358.576 368.400 C 367.596 368.400,372.843 368.254,373.000 368.000 C 373.136 367.780,373.788 367.600,374.450 367.600 C 377.387 367.600,381.600 363.243,381.600 360.205 C 381.600 359.432,381.780 358.800,382.000 358.800 C 382.265 358.800,382.400 333.149,382.400 282.647 L 382.400 206.493 381.500 206.252 C 380.523 205.990,339.031 206.025,336.900 206.289 " stroke="none" fill="#d0d0d0" fill-rule="evenodd"></path><path id="path2" d="M135.500 60.700 C 143.255 60.761,155.945 60.761,163.700 60.700 C 171.455 60.639,165.110 60.589,149.600 60.589 C 134.090 60.589,127.745 60.639,135.500 60.700 M256.529 60.700 C 264.411 60.761,277.191 60.761,284.929 60.700 C 292.668 60.639,286.220 60.589,270.600 60.590 C 254.980 60.590,248.648 60.639,256.529 60.700 M120.110 61.490 C 119.965 61.869,92.864 89.154,59.888 122.122 C 26.911 155.090,0.013 182.147,0.115 182.248 C 0.357 182.490,119.145 63.763,120.340 62.085 C 120.843 61.378,121.057 60.800,120.815 60.800 C 120.573 60.800,120.256 61.110,120.110 61.490 M106.849 133.220 C 64.237 175.915,34.810 205.693,34.973 205.956 C 35.166 206.268,39.573 206.400,49.847 206.400 C 59.479 206.400,64.363 206.264,64.200 206.000 C 64.043 205.746,58.951 205.600,50.243 205.600 C 42.703 205.600,36.406 205.473,36.251 205.317 C 36.095 205.162,68.195 172.806,107.584 133.415 C 146.973 94.024,179.200 61.571,179.200 61.297 C 179.200 61.024,179.155 60.829,179.100 60.865 C 179.045 60.901,146.532 93.461,106.849 133.220 M240.900 61.065 C 240.625 61.176,240.400 61.477,240.400 61.734 C 240.400 61.991,208.090 94.510,168.600 134.000 C 103.016 199.583,95.938 206.800,97.200 206.800 C 97.420 206.800,97.600 206.575,97.600 206.300 C 97.600 206.024,129.897 173.502,169.372 134.028 C 228.446 74.955,243.239 59.935,241.463 60.832 C 241.428 60.849,241.175 60.954,240.900 61.065 M299.246 61.161 C 299.221 61.470,266.800 94.123,227.200 133.723 C 187.600 173.323,155.200 206.006,155.200 206.351 C 155.200 206.814,155.359 206.751,155.809 206.109 C 156.144 205.630,188.648 173.013,228.039 133.625 C 280.450 81.221,299.612 61.822,299.477 61.306 C 299.367 60.883,299.274 60.825,299.246 61.161 M29.000 90.800 C 12.941 106.860,-0.040 120.000,0.154 120.000 C 0.347 120.000,13.551 106.958,29.495 91.017 L 58.484 62.033 61.342 61.896 L 64.200 61.759 61.199 61.679 L 58.198 61.600 29.000 90.800 M348.301 61.991 L 360.802 62.200 289.201 133.800 C 239.065 183.935,217.614 205.639,217.646 206.200 C 217.677 206.724,217.751 206.793,217.863 206.400 C 217.956 206.070,250.336 173.503,289.816 134.029 C 329.297 94.555,361.600 62.110,361.600 61.929 C 361.600 61.748,355.795 61.641,348.700 61.691 L 335.800 61.783 348.301 61.991 M337.500 143.900 C 303.455 177.946,275.603 206.071,275.606 206.400 C 275.611 206.920,275.661 206.922,275.980 206.419 C 276.182 206.100,304.209 177.975,338.263 143.919 C 372.316 109.864,400.003 82.000,399.789 82.000 C 399.574 82.000,371.544 109.855,337.500 143.900 M368.792 175.000 C 343.464 200.330,338.009 205.600,337.121 205.600 C 336.530 205.600,335.936 205.780,335.800 206.000 C 335.655 206.235,336.089 206.400,336.854 206.400 C 338.045 206.400,340.794 203.763,369.163 175.400 C 386.217 158.350,399.995 144.400,399.780 144.400 C 399.565 144.400,385.620 158.170,368.792 175.000 " stroke="none" fill="#747454" fill-rule="evenodd"></path><path id="path3" d="M64.285 61.197 C 64.100 61.904,63.742 62.000,61.298 62.000 L 58.521 62.000 29.258 91.251 L -0.005 120.502 0.098 151.149 L 0.200 181.796 60.074 121.936 C 93.004 89.013,120.004 61.744,120.074 61.338 C 120.281 60.127,64.601 59.986,64.285 61.197 M179.200 61.097 C 179.200 61.491,148.033 92.963,107.584 133.415 C 68.195 172.806,36.095 205.162,36.251 205.317 C 36.406 205.473,42.719 205.600,50.279 205.600 C 62.129 205.600,64.057 205.683,64.255 206.200 C 64.570 207.020,96.800 207.118,96.800 206.300 C 96.800 206.024,129.110 173.490,168.600 134.000 C 208.090 94.510,240.400 61.976,240.400 61.700 C 240.400 61.425,240.580 61.200,240.800 61.200 C 241.020 61.200,241.200 61.020,241.200 60.800 C 241.200 60.537,230.600 60.400,210.200 60.400 C 180.987 60.400,179.200 60.440,179.200 61.097 M300.100 60.665 C 299.825 60.776,299.600 61.138,299.600 61.469 C 299.600 61.800,267.200 94.468,227.600 134.065 C 188.000 173.663,155.600 206.227,155.600 206.430 C 155.600 206.653,167.880 206.800,186.600 206.800 C 215.850 206.800,217.600 206.761,217.600 206.100 C 217.600 205.704,248.628 174.373,289.300 133.700 L 360.999 62.000 348.462 62.000 C 336.262 62.000,335.919 61.979,335.716 61.200 C 335.514 60.430,301.933 59.925,300.100 60.665 M338.004 144.178 C 304.016 178.168,276.146 206.163,276.070 206.389 C 275.823 207.131,335.460 206.942,335.745 206.200 C 335.873 205.866,336.467 205.600,337.084 205.600 C 338.019 205.600,342.951 200.841,368.624 175.169 C 385.360 158.431,399.268 144.605,399.530 144.443 C 399.892 144.220,399.981 136.779,399.902 113.264 L 399.800 82.378 338.004 144.178 " stroke="none" fill="#44545c" fill-rule="evenodd"></path></g></svg>